<?xml version="1.0" standalone="no"?>
<!DOCTYPE svg PUBLIC "-//W3C//DTD SVG 20010904//EN"
 "http://www.w3.org/TR/2001/REC-SVG-20010904/DTD/svg10.dtd">
<svg version="1.0" xmlns="http://www.w3.org/2000/svg"
 width="500.000000pt" height="500.000000pt" viewBox="0 0 500.000000 500.000000"
 preserveAspectRatio="xMidYMid meet">

<g transform="translate(0.000000,500.000000) scale(0.100000,-0.100000)"
fill="#000000" stroke="none">
<path d="M2355 4989 c-401 -22 -792 -142 -1140 -352 -586 -353 -1009 -943
-1154 -1609 -69 -321 -70 -732 -1 -1048 106 -491 345 -920 708 -1272 380 -368
864 -605 1387 -678 207 -29 483 -29 690 0 333 46 652 160 940 333 590 355
1008 940 1156 1617 67 307 67 733 0 1040 -148 677 -566 1262 -1156 1617 -430
259 -923 380 -1430 352z m452 -164 c884 -116 1635 -737 1913 -1582 268 -816
84 -1686 -493 -2320 -325 -358 -777 -618 -1242 -713 -584 -120 -1191 -19
-1687 281 -69 42 -160 102 -201 133 -509 383 -838 945 -923 1576 -19 142 -18
458 1 606 69 523 300 989 677 1361 372 368 826 589 1363 662 105 15 472 12
592 -4z"/>
<path d="M2525 4600 c-31 -12 -48 -38 -48 -70 0 -44 26 -66 93 -79 60 -12 83
-31 72 -61 -7 -21 -23 -30 -55 -30 -38 0 -66 16 -77 46 -12 30 -50 34 -50 5 0
-78 159 -118 210 -54 44 57 12 114 -73 128 -55 9 -77 22 -77 43 0 28 21 42 61
42 28 0 43 -6 57 -25 20 -25 52 -34 52 -14 0 56 -97 97 -165 69z"/>
<path d="M2246 4593 l-48 -4 5 -47 c4 -26 9 -86 13 -134 8 -101 -5 -94 137
-82 66 6 77 10 77 26 0 17 -8 18 -82 16 l-83 -3 -3 36 c-3 35 -2 36 35 42 21
4 52 7 69 7 35 0 45 6 37 26 -4 11 -21 12 -80 7 l-74 -6 3 39 c2 30 7 39 23
41 115 11 135 15 135 29 0 14 -42 16 -164 7z"/>
<path d="M2750 4570 c0 -14 7 -20 23 -20 12 0 31 -3 43 -6 l21 -5 -19 -107
c-19 -113 -18 -132 6 -132 17 0 20 10 36 110 21 131 16 122 65 115 28 -5 45
-3 50 5 11 18 2 21 -102 41 -124 23 -123 23 -123 -1z"/>
<path d="M3104 4569 c-7 -12 15 -31 28 -23 4 3 21 -3 37 -12 30 -18 66 -13 58
9 -2 6 -12 11 -21 9 -9 -2 -26 4 -38 13 -26 18 -54 20 -64 4z"/>
<path d="M1989 4551 c-41 -13 -75 -39 -87 -67 -30 -64 2 -170 59 -199 61 -32
167 2 170 54 0 9 5 4 10 -10 7 -20 15 -26 30 -22 12 4 18 11 15 22 -3 9 -10
38 -17 65 l-12 48 -36 -6 c-72 -12 -111 -27 -111 -43 0 -16 12 -15 84 3 22 5
26 3 26 -15 0 -37 -43 -71 -90 -71 -49 0 -75 23 -90 79 -20 74 8 119 78 128
34 5 45 1 66 -20 20 -20 31 -24 48 -18 21 7 20 8 -8 40 -31 35 -86 48 -135 32z"/>
<path d="M3038 4405 c-46 -59 -84 -110 -86 -116 -2 -5 4 -12 13 -15 11 -5 24
2 39 21 l22 28 60 -20 c56 -19 59 -21 62 -55 2 -27 9 -37 24 -41 20 -6 21 -4
16 134 -3 77 -9 144 -14 149 -5 4 -19 11 -31 14 -18 6 -34 -9 -105 -99z m108
-81 c0 -1 -22 5 -49 13 l-47 14 42 56 43 57 6 -70 c4 -38 6 -70 5 -70z"/>
<path d="M1610 4410 c-47 -22 -89 -41 -93 -43 -7 -2 91 -229 105 -243 9 -9
189 79 185 90 -6 17 -36 11 -99 -17 l-58 -27 -19 39 -20 38 64 28 c47 20 65
32 65 46 0 24 -1 24 -58 -5 -72 -36 -89 -39 -95 -19 -2 10 -8 26 -12 36 -6 14
5 23 61 49 84 38 78 33 67 52 -7 13 -20 10 -93 -24z"/>
<path d="M3324 4381 c-44 -27 -78 -101 -71 -152 3 -23 14 -50 24 -61 23 -26
90 -58 123 -58 64 0 130 80 130 160 0 51 -22 86 -71 111 -48 24 -95 24 -135 0z
m135 -47 c38 -31 41 -72 10 -124 -38 -65 -77 -76 -136 -41 -40 25 -49 53 -32
103 29 88 96 114 158 62z"/>
<path d="M1317 4249 c-44 -26 -67 -46 -63 -55 8 -21 135 -214 141 -214 14 0
116 73 134 96 57 73 -19 214 -116 214 -15 0 -59 -19 -96 -41z m152 -34 c57
-65 52 -115 -16 -158 -21 -14 -41 -23 -44 -21 -4 2 -30 40 -57 83 l-51 80 42
25 c59 36 88 33 126 -9z"/>
<path d="M3653 4123 c-37 -48 -74 -95 -81 -104 -11 -16 -5 -24 50 -66 55 -42
69 -48 110 -48 38 0 52 5 78 30 59 56 74 109 46 164 -13 24 -113 111 -129 111
-3 0 -36 -39 -74 -87z m173 -50 c13 -50 -50 -133 -100 -133 -21 0 -106 53
-106 66 0 3 27 39 61 80 l60 74 40 -32 c22 -17 42 -42 45 -55z"/>
<path d="M1021 4014 c-12 -9 -21 -21 -21 -27 0 -16 103 -257 110 -257 3 0 11
4 19 9 12 8 12 14 1 41 -13 31 -12 33 31 76 42 42 46 44 76 32 25 -9 35 -9 48
2 20 16 28 11 -130 85 -104 49 -115 52 -134 39z m91 -65 l60 -31 -33 -34 c-18
-19 -36 -31 -40 -27 -11 11 -59 123 -53 123 2 0 32 -14 66 -31z"/>
<path d="M3867 3927 l-98 -92 70 -75 c54 -58 72 -72 81 -63 10 9 1 25 -39 71
-28 32 -51 61 -51 63 0 3 14 16 32 29 l31 23 48 -54 c37 -42 50 -51 60 -42 9
9 1 24 -36 68 l-48 56 27 27 28 27 54 -59 c39 -43 57 -57 65 -49 15 15 1 38
-68 105 l-58 57 -98 -92z"/>
<path d="M2425 3976 c-100 -37 -245 -107 -344 -169 -99 -61 -350 -241 -351
-251 0 -15 26 1 125 74 209 155 445 287 595 335 54 17 78 31 69 39 -2 2 -44
-11 -94 -28z"/>
<path d="M2600 3973 c0 -5 62 -39 138 -78 75 -38 171 -93 212 -121 41 -28 107
-69 145 -91 89 -53 155 -109 155 -134 0 -10 5 -19 10 -19 6 0 10 10 10 21 0
28 -57 79 -161 144 -47 29 -117 74 -155 99 -60 41 -333 186 -348 186 -3 0 -6
-3 -6 -7z"/>
<path d="M856 3838 c-9 -12 -16 -26 -16 -31 0 -4 27 -48 60 -97 33 -49 60 -91
60 -93 0 -3 -48 11 -107 29 l-108 34 -22 -25 c-13 -15 -23 -29 -23 -33 0 -6
166 -130 205 -154 6 -4 16 1 22 11 10 16 0 27 -79 85 -50 36 -89 66 -87 66 2
0 54 -16 114 -36 l110 -35 17 22 c10 11 15 26 11 33 -4 6 -33 51 -66 100 -65
97 -68 97 58 3 44 -34 63 -43 72 -35 7 6 13 14 13 18 0 8 -182 148 -204 156
-8 3 -21 -5 -30 -18z"/>
<path d="M2533 3791 c-29 -8 -53 -19 -53 -23 0 -11 12 -10 60 7 91 32 160 12
160 -46 0 -33 20 -59 69 -94 48 -32 60 -65 38 -99 -13 -19 -27 -24 -84 -29
-61 -6 -71 -10 -95 -39 -87 -106 -95 -108 -194 -43 -37 25 -76 46 -86 46 -10
1 -41 2 -69 3 -40 1 -55 6 -70 25 -27 33 -24 47 17 85 34 32 36 36 28 72 -11
53 -7 74 18 101 26 28 93 31 139 7 43 -22 49 -10 8 15 -22 14 -51 21 -82 21
-41 0 -53 -5 -79 -31 -29 -29 -30 -32 -24 -93 6 -61 5 -63 -24 -84 -23 -17
-30 -31 -30 -55 0 -57 18 -71 104 -78 66 -5 83 -11 129 -42 29 -20 67 -41 84
-47 46 -16 96 8 122 57 22 45 55 63 111 63 54 0 87 17 99 52 14 40 2 66 -58
116 -40 34 -51 49 -51 73 0 18 -9 39 -25 54 -29 30 -81 32 -162 6z"/>
<path d="M4125 3627 c-86 -116 -86 -116 -69 -142 10 -16 23 -24 33 -21 9 3 66
17 126 31 146 34 142 32 122 52 -17 17 -51 12 -228 -34 -18 -5 -12 6 28 58
104 134 103 132 88 152 -12 17 -21 9 -100 -96z"/>
<path d="M3025 3630 c-3 -5 1 -10 9 -10 9 0 16 5 16 10 0 6 -4 10 -9 10 -6 0
-13 -4 -16 -10z"/>
<path d="M2951 3505 c-111 -69 -133 -85 -113 -85 12 0 242 138 242 146 0 13
-37 -4 -129 -61z"/>
<path d="M1850 3552 c0 -7 194 -142 204 -142 22 0 -7 25 -94 83 -103 69 -110
72 -110 59z"/>
<path d="M613 3471 c-24 -44 -43 -84 -43 -89 0 -10 229 -137 235 -130 14 18
91 179 87 183 -16 16 -35 -2 -63 -57 -17 -35 -33 -65 -35 -67 -5 -5 -63 20
-70 30 -2 4 9 36 26 69 29 57 32 80 9 80 -5 0 -23 -29 -41 -64 l-31 -64 -34
16 c-18 9 -33 19 -33 24 0 4 16 36 35 71 19 35 32 67 28 70 -16 17 -31 2 -70
-72z"/>
<path d="M1762 3530 c6 -18 247 -186 358 -250 115 -65 274 -134 293 -127 7 3
-8 13 -33 23 -158 64 -359 181 -541 315 -67 49 -84 58 -77 39z"/>
<path d="M3139 3502 c-24 -14 -150 -76 -279 -138 -271 -128 -419 -206 -402
-212 6 -2 47 15 89 37 43 22 198 98 345 169 146 71 276 136 288 145 39 27 5
27 -41 -1z"/>
<path d="M3293 3513 c38 -135 79 -310 92 -398 22 -149 36 -194 29 -93 -10 148
-95 508 -120 508 -3 0 -4 -8 -1 -17z"/>
<path d="M1726 3493 c-12 -30 -20 -413 -9 -413 9 0 27 419 18 428 -1 1 -6 -5
-9 -15z"/>
<path d="M3095 3395 c-83 -48 -107 -65 -89 -65 12 0 162 84 178 100 22 22 -12
8 -89 -35z"/>
<path d="M3260 3432 c0 -13 81 -313 87 -321 22 -29 -52 274 -78 319 -6 10 -8
11 -9 2z"/>
<path d="M1780 3405 c0 -8 5 -15 10 -15 6 0 10 7 10 15 0 8 -4 15 -10 15 -5 0
-10 -7 -10 -15z"/>
<path d="M4230 3383 c-89 -5 -102 -10 -90 -34 9 -16 18 -18 44 -14 31 6 33 5
58 -53 l26 -60 -25 -24 c-21 -22 -24 -58 -4 -58 3 0 51 45 106 100 94 94 98
100 87 125 -12 27 -29 28 -202 18z m115 -83 l-50 -51 -17 38 c-9 21 -17 41
-17 45 -1 8 36 14 94 17 l39 1 -49 -50z"/>
<path d="M1781 3288 c1 -24 5 -54 9 -68 6 -18 8 -7 9 43 1 38 -3 67 -9 67 -5
0 -10 -19 -9 -42z"/>
<path d="M529 3293 c-25 -64 -69 -185 -69 -189 0 -2 8 -4 18 -4 13 0 23 13 32
40 7 22 14 40 15 40 1 0 51 -18 110 -40 83 -31 111 -37 117 -28 4 7 6 17 5 22
-2 5 -51 27 -109 49 l-107 39 15 40 c7 22 11 44 8 49 -10 17 -24 9 -35 -18z"/>
<path d="M2270 3311 c0 -10 24 -21 43 -21 7 0 3 7 -7 15 -22 17 -36 19 -36 6z"/>
<path d="M2925 3190 c-29 -11 -41 -28 -65 -93 -18 -49 -30 -63 -75 -93 -95
-63 -101 -133 -19 -210 32 -30 34 -36 34 -98 0 -103 31 -158 87 -158 21 0 39
13 73 51 l45 51 72 0 c67 0 73 2 97 31 30 35 34 81 11 136 -20 47 -19 72 5
133 38 95 23 129 -67 156 -34 10 -59 26 -85 57 -21 24 -38 36 -38 27 0 -32 65
-87 123 -104 72 -21 79 -40 47 -142 -22 -70 -23 -74 -7 -116 22 -58 22 -110
-2 -139 -16 -21 -29 -24 -83 -25 -95 -1 -96 -1 -123 -44 -29 -45 -57 -64 -85
-55 -31 10 -44 44 -50 132 -6 79 -8 83 -48 127 -33 36 -42 53 -42 82 0 37 18
60 93 116 26 20 42 45 58 89 15 41 30 64 46 72 13 5 23 14 23 19 0 9 1 9 -25
-2z"/>
<path d="M4355 3146 c-43 -19 -85 -71 -85 -107 0 -41 24 -95 49 -111 25 -15
27 -28 6 -28 -17 0 -19 -9 -6 -28 7 -11 19 -10 67 4 32 9 60 18 62 19 8 7 -34
138 -46 142 -22 9 -24 -3 -8 -56 l15 -51 -30 0 c-59 0 -92 105 -46 147 26 25
100 47 127 38 55 -17 80 -114 40 -150 -22 -20 -26 -40 -8 -51 6 -4 23 6 40 25
34 38 37 86 9 148 -31 67 -110 92 -186 59z"/>
<path d="M2935 3139 c-4 -6 -5 -12 -2 -15 7 -7 37 7 37 17 0 13 -27 11 -35 -2z"/>
<path d="M1904 3116 c-48 -21 -57 -67 -28 -153 16 -48 207 -346 238 -372 32
-27 28 -2 -6 41 -64 78 -182 262 -205 318 -31 75 -30 125 2 146 46 30 101 1
139 -73 21 -41 33 -42 41 -3 20 91 113 121 150 49 29 -55 11 -210 -40 -341 -4
-10 -3 -18 3 -18 16 0 63 155 69 227 7 80 -2 126 -33 163 -45 53 -124 33 -154
-40 l-13 -31 -30 37 c-17 20 -45 43 -63 50 -39 16 -32 16 -70 0z"/>
<path d="M2512 3100 c0 -14 2 -19 5 -12 2 6 2 18 0 25 -3 6 -5 1 -5 -13z"/>
<path d="M457 3019 c-27 -16 -47 -64 -47 -113 0 -36 5 -48 26 -65 54 -42 91
-24 129 62 28 63 42 74 75 57 19 -10 22 -18 17 -52 -6 -47 -31 -78 -64 -78
-16 0 -23 -6 -23 -20 0 -16 7 -20 30 -20 40 0 74 37 88 93 20 80 -8 127 -74
127 -38 0 -63 -27 -84 -89 -18 -55 -42 -69 -71 -40 -32 32 -12 91 38 110 30
11 30 39 1 39 -13 0 -31 -5 -41 -11z"/>
<path d="M3361 3015 c1 -11 5 -31 9 -45 8 -24 8 -24 9 5 0 17 -4 37 -9 45 -8
12 -10 11 -9 -5z"/>
<path d="M2445 2973 c7 -48 11 -60 19 -52 8 8 -7 99 -16 99 -6 0 -8 -18 -3
-47z"/>
<path d="M1724 2848 c10 -195 19 -209 224 -347 49 -33 62 -47 62 -67 0 -31
-15 -61 -48 -96 -14 -16 -20 -28 -13 -28 21 0 62 53 73 96 l11 42 68 -33 c38
-18 78 -35 91 -38 23 -6 23 -7 3 -20 -11 -8 -105 -58 -210 -112 -212 -110
-200 -103 -193 -111 7 -6 155 67 331 163 65 35 121 62 125 59 24 -14 173 -53
177 -46 3 5 -54 28 -127 51 -72 23 -170 61 -217 86 -98 50 -275 175 -304 215
-24 33 -35 101 -36 226 -1 62 -5 92 -12 92 -9 0 -10 -35 -5 -132z"/>
<path d="M2796 2934 c-10 -26 -7 -59 8 -80 21 -28 31 -10 11 20 -16 24 -16 28
-1 51 14 21 14 25 2 25 -7 0 -17 -7 -20 -16z"/>
<path d="M2512 2915 c0 -16 2 -22 5 -12 2 9 2 23 0 30 -3 6 -5 -1 -5 -18z"/>
<path d="M3421 2817 c0 -51 -7 -102 -15 -122 -8 -19 -11 -35 -6 -35 12 0 22
18 29 51 l6 29 185 -108 c101 -59 204 -126 227 -149 23 -23 45 -38 48 -33 12
20 -81 90 -259 194 -103 60 -189 113 -193 119 -4 6 -10 41 -13 77 l-7 65 -2
-88z"/>
<path d="M1550 2814 c-204 -107 -480 -284 -504 -322 -11 -18 276 -197 423
-264 70 -32 236 -98 246 -98 22 0 -17 22 -87 50 -157 62 -454 223 -537 291
-28 23 -36 14 99 108 107 74 205 132 376 222 74 39 134 75 134 80 0 5 -1 9 -2
9 -2 0 -68 -35 -148 -76z"/>
<path d="M1810 2810 c0 -67 8 -110 19 -110 10 0 0 154 -10 165 -5 5 -9 -17 -9
-55z"/>
<path d="M4330 2810 c0 -14 10 -22 32 -28 28 -7 34 -14 40 -48 13 -76 10 -91
-23 -104 -19 -8 -28 -18 -25 -27 4 -8 6 -18 6 -22 0 -4 56 21 125 56 123 63
125 64 125 97 l0 34 -131 31 c-72 17 -135 31 -140 31 -5 0 -9 -9 -9 -20z m190
-64 l54 -12 -58 -32 c-32 -17 -63 -29 -67 -26 -14 8 -11 84 4 84 6 -1 37 -7
67 -14z"/>
<path d="M2526 2728 c7 -46 18 -141 25 -213 7 -71 17 -134 22 -140 11 -12 3
106 -19 270 -18 137 -24 165 -33 165 -4 0 -1 -37 5 -82z"/>
<path d="M387 2763 c-3 -5 -8 -41 -12 -81 -7 -69 -6 -74 11 -70 12 2 20 13 22
28 l3 25 100 -9 101 -10 -6 -28 c-4 -23 -2 -28 13 -28 14 0 20 10 25 46 10 74
8 104 -8 104 -8 0 -17 -12 -20 -26 -6 -24 -9 -25 -64 -19 -132 14 -132 14
-132 46 0 27 -22 41 -33 22z"/>
<path d="M1523 2726 c-71 -48 -105 -77 -99 -83 2 -3 42 21 88 53 101 70 106
74 88 73 -8 0 -43 -19 -77 -43z"/>
<path d="M2450 2745 c0 -43 41 -459 46 -464 2 -2 6 -2 9 0 7 8 -37 473 -47
484 -4 5 -8 -4 -8 -20z"/>
<path d="M1604 2689 c-63 -40 -114 -88 -114 -109 0 -21 26 -57 36 -48 4 4 1
14 -5 22 -20 24 -4 51 57 93 77 54 98 64 116 57 31 -12 16 -43 -40 -85 l-56
-41 21 -22 21 -21 45 24 c25 13 45 28 45 32 0 13 -9 11 -47 -12 -18 -12 -41
-18 -50 -15 -12 5 -4 15 35 44 55 39 72 72 52 97 -20 24 -62 18 -116 -16z"/>
<path d="M2860 2682 c0 -21 7 -47 16 -58 15 -18 15 -18 10 6 -3 14 -6 40 -6
58 0 17 -4 32 -10 32 -5 0 -10 -17 -10 -38z"/>
<path d="M3339 2684 c-19 -14 -60 -39 -91 -55 -32 -16 -58 -34 -58 -40 0 -14
128 54 171 91 42 36 26 39 -22 4z"/>
<path d="M3446 2672 c-2 -4 59 -44 136 -87 160 -91 158 -90 158 -78 0 5 -42
33 -92 61 -51 28 -116 65 -145 82 -29 16 -54 26 -57 22z"/>
<path d="M1929 2610 c21 -18 61 -28 61 -15 0 7 -57 35 -72 35 -7 -1 -3 -9 11
-20z"/>
<path d="M3270 2593 c-119 -79 -297 -160 -491 -223 -107 -34 -200 -64 -208
-67 -8 -2 -11 -6 -8 -10 4 -3 26 0 49 6 43 12 43 12 167 -59 167 -96 280 -152
298 -148 9 2 -31 26 -88 55 -129 64 -290 157 -292 167 -1 5 59 30 133 56 74
26 142 50 151 54 12 5 20 -1 29 -24 18 -43 84 -108 133 -131 55 -25 148 -25
203 0 132 60 135 244 5 308 l-41 21 22 15 c49 34 -9 15 -62 -20z m80 -35 c45
-31 69 -66 76 -110 8 -49 0 -80 -32 -118 -38 -44 -81 -63 -144 -63 -94 0 -178
51 -221 134 l-18 37 31 13 c29 12 32 11 50 -14 26 -36 33 -34 46 11 13 44 33
64 100 103 58 34 70 35 112 7z m-224 -84 c-3 -9 -6 -21 -6 -27 0 -6 -8 -3 -17
6 -16 16 -16 19 -3 27 22 14 33 12 26 -6z"/>
<path d="M3324 2441 c20 -22 13 -45 -20 -60 -34 -15 -49 -14 -65 5 -10 12 -10
20 -1 35 15 23 15 29 2 29 -6 0 -15 -12 -20 -26 -28 -74 80 -100 125 -30 19
28 6 66 -22 66 -15 0 -15 -2 1 -19z"/>
<path d="M1242 2550 c-29 -27 -52 -58 -52 -69 0 -21 53 -71 76 -71 22 0 17 6
-21 29 -20 12 -35 28 -35 39 0 11 23 40 50 66 28 26 50 49 50 51 0 14 -21 0
-68 -45z"/>
<path d="M4424 2553 c-12 -2 -32 -15 -45 -29 -20 -21 -24 -36 -24 -89 0 -78
19 -105 75 -105 47 0 66 21 81 90 6 30 16 61 21 68 15 18 46 15 58 -7 19 -36
12 -71 -20 -99 -16 -15 -30 -32 -30 -39 0 -22 39 -15 65 12 29 28 35 76 20
143 -8 31 -59 53 -96 40 -31 -11 -37 -22 -53 -97 -13 -60 -35 -83 -63 -65 -37
23 -28 120 12 130 18 4 25 13 25 30 0 13 -1 23 -2 23 -2 -1 -13 -4 -24 -6z"/>
<path d="M389 2521 c-24 -24 -29 -38 -29 -76 0 -51 20 -99 45 -109 58 -22 100
13 111 91 9 68 23 88 57 79 19 -4 28 -14 32 -39 8 -41 -9 -87 -35 -94 -13 -3
-20 -14 -20 -29 0 -21 2 -22 30 -12 39 13 60 54 60 116 0 67 -27 102 -79 102
-49 0 -69 -23 -77 -86 -9 -65 -20 -84 -50 -84 -17 0 -27 8 -35 26 -13 35 -3
64 28 91 16 13 24 27 20 37 -9 23 -25 20 -58 -13z"/>
<path d="M1816 2521 c-5 -7 3 -11 19 -11 32 0 75 -44 75 -76 0 -36 -47 -67
-92 -60 -20 3 -39 2 -42 -3 -12 -18 71 -23 103 -7 56 30 65 90 18 134 -27 25
-72 38 -81 23z"/>
<path d="M1550 2511 c0 -14 77 -70 107 -77 16 -4 39 4 74 27 29 18 47 35 41
37 -6 2 -28 -8 -49 -22 -48 -33 -61 -33 -109 2 -56 40 -64 44 -64 33z"/>
<path d="M3682 2400 c-39 -27 -78 -50 -85 -53 -6 -2 -9 -8 -5 -12 7 -8 120 56
168 94 49 40 -5 19 -78 -29z"/>
<path d="M3910 2424 c0 -6 9 -45 19 -87 55 -212 99 -579 82 -673 -10 -53 -9
-75 4 -62 3 2 9 28 15 57 18 95 -22 437 -76 656 -22 87 -44 142 -44 109z"/>
<path d="M3510 2248 c-184 -94 -336 -174 -338 -179 -5 -13 130 51 421 199 228
117 296 156 260 151 -5 -1 -159 -78 -343 -171z"/>
<path d="M1722 2348 c-18 -18 -15 -36 13 -63 19 -20 34 -25 78 -25 33 0 61 6
73 15 18 15 17 15 -16 8 -85 -19 -147 6 -135 54 6 26 4 28 -13 11z"/>
<path d="M1410 2335 c7 -8 20 -15 29 -15 13 1 13 3 -3 15 -26 19 -42 19 -26 0z"/>
<path d="M1033 2273 c-4 -38 -8 -176 -8 -308 0 -228 1 -242 22 -281 25 -48 77
-95 134 -125 63 -31 69 -17 8 18 -68 38 -125 100 -138 150 -24 93 -21 383 5
571 4 26 2 42 -4 42 -6 0 -14 -30 -19 -67z"/>
<path d="M2810 2311 c0 -11 104 -83 167 -115 84 -42 84 -30 1 18 -42 24 -95
57 -116 75 -41 32 -52 37 -52 22z"/>
<path d="M3880 2290 c0 -5 5 -10 10 -10 6 0 10 5 10 10 0 6 -4 10 -10 10 -5 0
-10 -4 -10 -10z"/>
<path d="M2458 2198 c-6 -171 8 -478 26 -535 9 -29 21 -53 26 -53 13 0 13 0
-6 51 -21 59 -38 340 -30 502 4 73 2 127 -3 127 -5 0 -11 -42 -13 -92z"/>
<path d="M1604 2255 c26 -19 42 -19 26 0 -7 8 -20 15 -29 15 -13 -1 -13 -3 3
-15z"/>
<path d="M1110 2245 c0 -8 2 -15 4 -15 2 0 6 7 10 15 3 8 1 15 -4 15 -6 0 -10
-7 -10 -15z"/>
<path d="M2380 2106 c0 -59 4 -108 10 -111 6 -4 10 33 10 104 0 67 -4 111 -10
111 -6 0 -10 -41 -10 -104z"/>
<path d="M3900 2193 c0 -14 19 -38 25 -32 8 8 -5 39 -16 39 -5 0 -9 -3 -9 -7z"/>
<path d="M1288 2183 c-16 -3 -28 -9 -28 -14 0 -6 14 -7 34 -4 69 13 138 -52
135 -130 -1 -56 0 -62 11 -45 16 25 11 91 -10 125 -33 53 -82 76 -142 68z"/>
<path d="M2120 2170 c0 -5 7 -10 15 -10 8 0 21 -10 29 -22 14 -22 47 -165 61
-260 3 -27 11 -48 16 -48 6 0 8 12 5 28 -3 15 -15 79 -26 143 -23 125 -47 179
-80 179 -11 0 -20 -4 -20 -10z"/>
<path d="M2510 2153 c0 -22 2 -25 10 -13 13 20 13 40 0 40 -5 0 -10 -12 -10
-27z"/>
<path d="M2067 2132 c-37 -39 -97 -142 -97 -167 0 -51 44 -58 90 -15 18 17 34
29 35 28 1 -2 13 -49 25 -105 13 -57 27 -103 33 -103 5 0 7 10 4 23 -4 12 -16
67 -28 122 -12 55 -23 102 -25 104 -2 3 -20 -14 -40 -37 -37 -44 -61 -53 -70
-27 -9 22 13 69 63 137 48 64 53 85 10 40z"/>
<path d="M1208 2133 c-35 -40 -31 -92 8 -107 9 -4 34 2 54 13 28 14 41 16 49
8 18 -18 13 -31 -39 -96 -47 -59 -59 -82 -42 -80 9 0 94 116 104 141 10 24 0
46 -24 59 -16 9 -26 7 -50 -11 -50 -37 -85 -2 -54 52 21 34 17 46 -6 21z"/>
<path d="M3115 2140 c3 -5 13 -10 21 -10 8 0 12 5 9 10 -3 6 -13 10 -21 10 -8
0 -12 -4 -9 -10z"/>
<path d="M3337 2099 c-54 -27 -95 -53 -92 -58 6 -11 205 85 205 99 0 14 -5 13
-113 -41z"/>
<path d="M3554 2121 c3 -4 19 -11 36 -14 22 -5 31 -13 36 -34 3 -15 10 -39 14
-53 7 -21 9 -19 9 18 1 33 -5 49 -24 67 -22 23 -83 37 -71 16z"/>
<path d="M2664 2085 c-33 -35 -54 -87 -54 -133 0 -38 30 -90 64 -114 17 -12
32 -23 34 -24 2 -1 -5 -15 -15 -30 -12 -20 -18 -47 -18 -89 0 -113 74 -184
179 -172 40 5 57 13 79 37 26 30 36 60 18 60 -5 0 -12 -11 -15 -25 -13 -52
-113 -72 -174 -35 -37 23 -71 88 -72 136 0 17 11 52 24 78 l24 47 -39 25 c-44
27 -69 69 -69 114 0 39 32 102 65 128 27 21 32 32 14 32 -7 0 -27 -16 -45 -35z"/>
<path d="M3496 2083 c-18 -37 -97 -259 -119 -337 -11 -35 -10 -40 12 -57 25
-20 95 -26 106 -9 4 6 -10 10 -34 10 -50 0 -71 8 -71 27 0 18 92 293 120 357
23 55 11 62 -14 9z"/>
<path d="M1090 2093 c0 -13 5 -23 10 -23 13 0 13 11 0 30 -8 12 -10 11 -10 -7z"/>
<path d="M1704 2048 c9 -89 24 -323 31 -458 7 -139 14 -200 23 -200 4 0 6 19
5 43 -38 625 -42 677 -55 677 -6 0 -7 -26 -4 -62z"/>
<path d="M2770 2092 c0 -4 28 -20 63 -37 52 -25 66 -37 85 -77 20 -40 22 -52
13 -85 -6 -22 -22 -49 -35 -62 l-24 -22 34 -51 c19 -27 34 -60 34 -72 0 -15 3
-17 9 -7 12 18 3 50 -25 88 l-24 32 25 37 c47 69 25 172 -48 221 -33 22 -107
46 -107 35z"/>
<path d="M3939 2055 c-3 -3 -2 -26 2 -53 4 -26 8 -102 8 -169 1 -85 5 -123 12
-123 9 0 10 43 5 162 -7 151 -14 197 -27 183z"/>
<path d="M2510 2006 c0 -14 5 -26 10 -26 6 0 10 9 10 19 0 11 -4 23 -10 26 -6
4 -10 -5 -10 -19z"/>
<path d="M2715 1988 c-10 -24 22 -73 61 -94 27 -15 37 -16 58 -6 16 7 26 20
26 32 0 24 -42 70 -65 70 -24 0 -18 -13 16 -32 34 -20 36 -51 3 -56 -28 -4
-72 33 -83 71 -7 25 -10 28 -16 15z"/>
<path d="M3080 1980 c0 -11 5 -20 10 -20 6 0 10 9 10 20 0 11 -4 20 -10 20 -5
0 -10 -9 -10 -20z"/>
<path d="M1082 1890 c-1 -83 2 -114 17 -146 19 -41 37 -61 48 -51 2 3 -5 19
-18 36 -18 24 -24 54 -34 148 l-12 118 -1 -105z"/>
<path d="M1790 1971 c0 -11 5 -23 10 -26 6 -4 10 5 10 19 0 14 -4 26 -10 26
-5 0 -10 -9 -10 -19z"/>
<path d="M1401 1951 c-6 -10 -30 -42 -55 -71 -78 -91 -68 -117 56 -150 101
-27 130 -44 126 -73 -3 -19 -9 -22 -43 -21 -22 0 -56 4 -75 9 -26 6 -32 5 -24
-4 5 -6 36 -17 68 -23 68 -15 90 -5 94 40 4 39 -19 55 -119 83 -76 21 -119 42
-119 59 0 6 15 27 33 47 59 67 88 111 78 117 -5 4 -15 -2 -20 -13z"/>
<path d="M3144 1948 c8 -36 28 -659 22 -665 -8 -9 -134 26 -212 58 -88 37
-251 132 -339 199 -69 52 -107 68 -65 26 45 -45 224 -157 335 -211 150 -73
322 -119 310 -82 -2 6 -9 158 -15 337 -6 179 -14 333 -16 343 -8 25 -25 21
-20 -5z"/>
<path d="M3214 1923 c4 -21 9 -100 13 -175 3 -81 10 -138 16 -138 7 0 8 46 4
133 -8 158 -16 217 -30 217 -6 0 -7 -15 -3 -37z"/>
<path d="M3516 1873 c-16 -49 -31 -94 -34 -102 -3 -8 0 -12 8 -9 7 2 23 35 35
72 24 74 29 75 40 9 5 -32 3 -43 -6 -43 -10 0 -10 -3 -1 -12 8 -8 15 -8 26 1
12 10 12 20 1 64 -7 29 -16 64 -19 80 -4 15 -10 27 -14 27 -4 0 -21 -39 -36
-87z"/>
<path d="M3659 1935 c-3 -3 2 -54 12 -113 11 -59 22 -142 25 -185 8 -85 2 -97
-44 -97 -26 0 -36 21 -47 98 -6 46 -9 52 -31 52 -13 0 -24 -4 -24 -10 0 -5 6
-10 14 -10 16 0 21 -13 31 -77 10 -64 25 -79 70 -68 60 16 62 24 37 208 -21
162 -32 213 -43 202z"/>
<path d="M2380 1910 c0 -5 5 -10 10 -10 6 0 10 5 10 10 0 6 -4 10 -10 10 -5 0
-10 -4 -10 -10z"/>
<path d="M1795 1891 c-3 -5 -1 -12 5 -16 5 -3 10 1 10 9 0 18 -6 21 -15 7z"/>
<path d="M2526 1803 c11 -104 15 -125 27 -144 14 -24 84 -63 91 -51 3 5 -10
16 -30 25 -42 21 -61 60 -69 150 -4 37 -11 67 -16 67 -5 0 -6 -21 -3 -47z"/>
<path d="M1207 1833 c-3 -5 -8 -22 -11 -39 -13 -60 19 -101 102 -129 41 -15
70 -7 31 8 -84 32 -98 41 -110 69 -9 21 -9 38 -1 64 9 30 1 48 -11 27z"/>
<path d="M1650 1826 c0 -8 5 -18 10 -21 6 -3 10 3 10 14 0 12 -4 21 -10 21 -5
0 -10 -6 -10 -14z"/>
<path d="M2294 1821 c-23 -10 -45 -24 -48 -30 -10 -15 -5 -14 45 9 52 23 102
26 119 5 25 -30 1 -51 -118 -102 -149 -64 -187 -76 -218 -69 -40 10 -29 55 18
81 45 24 50 38 9 24 -72 -25 -93 -88 -39 -118 24 -14 32 -13 85 3 32 10 103
38 158 63 132 58 159 89 115 133 -25 25 -72 25 -126 1z"/>
<path d="M2792 1735 c-18 -38 -14 -80 7 -99 28 -25 55 -17 59 18 5 37 -6 78
-18 71 -5 -3 -4 -18 2 -36 13 -38 -2 -60 -27 -39 -17 14 -17 55 0 93 12 27
-11 20 -23 -8z"/>
<path d="M1810 1743 c0 -32 32 -328 35 -332 13 -12 13 16 0 149 -8 80 -15 155
-15 168 0 12 -4 22 -10 22 -5 0 -10 -3 -10 -7z"/>
<path d="M1664 1649 c3 -17 6 -68 7 -113 1 -66 2 -75 10 -51 12 37 1 195 -13
195 -6 0 -8 -13 -4 -31z"/>
<path d="M2450 1595 c-8 -9 -8 -15 -2 -15 12 0 26 19 19 26 -2 2 -10 -2 -17
-11z"/>
<path d="M3108 1584 c-5 -4 -8 -57 -8 -118 0 -76 3 -107 10 -100 7 7 10 53 8
118 -2 59 -6 104 -10 100z"/>
<path d="M3919 1566 c-146 -99 -489 -242 -652 -271 -20 -4 -40 -11 -43 -16
-22 -36 274 53 471 143 94 43 250 132 261 149 12 20 -3 18 -37 -5z"/>
<path d="M3250 1511 c0 -6 5 -13 10 -16 6 -3 10 1 10 9 0 9 -4 16 -10 16 -5 0
-10 -4 -10 -9z"/>
<path d="M2210 1470 c-74 -37 -230 -95 -313 -116 -67 -16 -97 -42 -34 -29 63
14 235 74 318 111 92 41 105 49 92 57 -4 3 -33 -8 -63 -23z"/>
<path d="M1350 1472 c0 -6 33 -24 73 -40 93 -38 117 -45 117 -34 0 4 -39 24
-87 43 -48 19 -90 36 -95 37 -4 2 -8 -1 -8 -6z"/>
<path d="M2915 1440 c-7 -12 18 -24 37 -18 8 3 5 9 -9 16 -14 8 -24 9 -28 2z"/>
<path d="M3260 1390 c0 -18 4 -29 10 -25 6 3 10 15 10 25 0 10 -4 22 -10 25
-6 4 -10 -7 -10 -25z"/>
<path d="M1595 1371 c8 -14 111 -51 140 -51 14 0 25 5 25 10 0 6 -11 10 -25
10 -13 0 -47 9 -75 20 -56 22 -74 25 -65 11z"/>
<path d="M816 1183 l-109 -115 81 -81 c45 -45 85 -78 89 -73 4 4 -25 39 -65
77 -81 77 -81 78 -18 138 l35 34 68 -62 c92 -83 104 -77 18 9 l-69 70 44 45
44 45 73 -72 c40 -39 76 -69 80 -65 7 8 -69 90 -127 137 l-35 28 -109 -115z"/>
<path d="M4040 1291 c0 -10 224 -224 241 -229 5 -2 9 1 9 6 0 10 -234 232
-244 232 -3 0 -6 -4 -6 -9z"/>
<path d="M3986 1221 c-3 -5 1 -14 8 -20 16 -13 32 2 21 19 -8 12 -22 13 -29 1z"/>
<path d="M4040 1162 c0 -14 169 -176 177 -169 4 4 -31 46 -77 92 -79 80 -100
96 -100 77z"/>
<path d="M3972 1103 c-32 -24 -34 -25 -52 -8 -22 20 -25 14 -9 -17 9 -18 8
-24 -7 -35 -9 -7 -14 -16 -11 -20 4 -4 13 -1 19 5 7 7 15 12 19 12 4 0 35 -33
69 -72 35 -40 68 -76 75 -80 7 -5 28 7 51 27 22 19 33 34 25 35 -8 0 -26 -11
-40 -24 l-26 -25 -62 74 c-35 40 -63 77 -63 81 0 4 12 20 27 36 35 37 26 44
-15 11z"/>
<path d="M1035 989 c-70 -62 -86 -136 -38 -183 29 -29 61 -41 97 -34 21 4 23
3 13 -13 -9 -15 -4 -41 6 -28 34 42 197 268 197 273 0 18 -23 0 -56 -46 l-38
-51 -8 30 c-5 17 -22 43 -39 57 -43 37 -88 35 -134 -5z m124 -15 c25 -21 31
-33 31 -65 0 -32 -7 -48 -39 -81 -43 -46 -80 -54 -125 -25 -52 34 -46 99 13
159 46 45 77 49 120 12z"/>
<path d="M3820 982 c-54 -24 -83 -69 -74 -113 5 -23 4 -22 -13 4 -18 27 -33
35 -33 17 0 -6 30 -53 66 -105 71 -102 108 -123 45 -25 -58 90 -63 162 -12
189 48 26 68 15 127 -69 48 -70 74 -95 74 -74 0 18 -116 167 -137 175 -13 5
-25 9 -26 8 -1 0 -9 -3 -17 -7z"/>
<path d="M1292 877 c-5 -6 -28 -47 -51 -91 -46 -87 -46 -107 -3 -143 28 -24
95 -32 107 -13 3 6 11 10 16 10 5 0 2 -11 -6 -24 -10 -14 -12 -27 -6 -30 5 -3
36 41 69 99 34 57 57 107 52 110 -9 6 -18 -5 -53 -67 -46 -80 -112 -109 -165
-72 -33 23 -27 59 22 146 25 43 41 80 36 83 -4 3 -12 -1 -18 -8z"/>
<path d="M3363 830 c-48 -21 -50 -27 -27 -72 15 -29 15 -32 0 -43 -22 -17 -20
-25 5 -22 19 2 28 -12 63 -95 22 -54 46 -98 53 -98 8 0 -5 41 -32 106 l-44
105 37 16 c25 12 32 18 20 20 -9 3 -27 -1 -39 -7 -23 -13 -29 -9 -46 31 -11
25 -9 28 28 44 21 10 39 22 39 27 0 11 -9 9 -57 -12z"/>
<path d="M3583 838 c-60 -16 -110 -111 -65 -126 9 -3 11 3 7 21 -9 33 8 61 44
76 37 16 71 11 85 -12 9 -15 2 -26 -47 -70 -47 -42 -58 -58 -57 -83 0 -64 73
-85 129 -38 17 14 31 34 31 45 0 23 15 25 24 3 3 -8 10 -13 16 -9 5 3 -7 35
-27 73 -68 126 -80 136 -140 120z m117 -154 c0 -59 -81 -109 -118 -72 -25 25
-13 56 40 102 52 46 52 46 65 23 7 -12 12 -36 13 -53z"/>
<path d="M1522 715 c-38 -32 -65 -99 -57 -141 7 -40 53 -81 99 -89 38 -8 90
14 100 41 10 27 0 27 -27 0 -30 -30 -55 -32 -102 -10 -61 29 -65 107 -9 174
29 34 67 39 113 15 31 -15 41 -33 41 -71 0 -13 5 -24 10 -24 14 0 12 62 -3 80
-43 55 -117 66 -165 25z"/>
<path d="M2975 685 c-5 -2 -36 -9 -67 -15 -64 -13 -78 -31 -21 -27 l36 2 28
-130 c16 -72 28 -133 29 -137 0 -5 -10 -8 -22 -8 -26 0 -55 -16 -46 -25 8 -8
150 25 163 37 7 7 -3 9 -31 4 l-41 -6 -22 103 c-38 180 -38 174 -2 182 17 4
31 11 31 16 0 9 -16 11 -35 4z"/>
<path d="M3194 670 c-26 -10 -64 -57 -65 -79 0 -9 -5 -4 -11 12 -9 24 -28 38
-28 20 1 -28 69 -218 80 -221 9 -3 11 1 6 14 -4 11 -14 47 -21 82 -17 79 -6
126 35 147 60 31 78 16 115 -97 32 -97 34 -100 45 -93 12 7 -49 184 -71 206
-20 20 -50 23 -85 9z"/>
<path d="M1780 630 c-20 -20 -26 -40 -12 -40 4 0 13 9 20 20 9 14 23 20 50 20
51 0 82 -23 82 -61 l0 -30 -80 2 c-93 3 -120 -12 -120 -68 0 -27 6 -37 33 -53
39 -24 75 -25 105 -4 21 15 22 14 22 -12 0 -42 11 -21 37 64 32 110 31 138 -9
162 -43 26 -102 26 -128 0z m97 -110 c31 0 34 -2 28 -22 -10 -35 -61 -78 -93
-78 -15 0 -38 7 -50 16 -48 33 -9 101 52 90 16 -4 44 -6 63 -6z"/>
<path d="M2320 625 c-7 -9 -10 -19 -6 -22 4 -4 11 -1 16 7 8 13 13 12 39 -3
31 -18 61 -14 61 9 0 17 -17 19 -22 3 -3 -8 -14 -7 -35 5 -39 20 -38 20 -53 1z"/>
<path d="M2032 574 c-33 -23 -52 -67 -52 -121 0 -55 17 -86 61 -108 34 -18 40
-55 9 -55 -11 0 -20 -4 -20 -10 0 -5 14 -10 30 -10 26 0 30 3 30 29 0 23 5 30
28 36 35 8 72 43 72 67 0 16 -7 12 -35 -18 -31 -33 -39 -36 -72 -31 -24 4 -47
17 -62 33 -19 23 -22 36 -18 77 6 63 34 101 77 105 49 5 89 -15 98 -51 4 -17
14 -33 21 -35 25 -8 3 51 -30 81 -34 32 -100 37 -137 11z"/>
<path d="M2295 535 c-25 -24 -33 -55 -15 -55 6 0 10 6 10 13 0 45 101 65 134
28 29 -32 17 -55 -34 -64 -99 -18 -117 -26 -130 -58 -11 -27 -11 -34 7 -57 27
-37 94 -43 135 -12 28 21 28 21 28 0 0 -11 5 -20 10 -20 6 0 10 21 10 48 0 26
3 70 6 99 6 46 4 54 -19 77 -36 36 -107 37 -142 1z m135 -125 c0 -45 -39 -80
-88 -80 -43 0 -62 14 -62 45 0 35 17 49 67 56 84 11 83 12 83 -21z"/>
<path d="M2548 531 c-31 -27 -33 -34 -33 -95 0 -58 3 -68 29 -95 39 -40 84
-49 133 -25 47 23 63 54 63 123 0 47 -4 57 -34 87 -29 29 -41 34 -80 34 -36 0
-52 -6 -78 -29z m141 -10 c38 -38 40 -142 3 -173 -43 -38 -118 -28 -143 19
-23 43 -18 117 10 147 31 33 100 37 130 7z"/>
</g>
</svg>
